<svg xmlns="http://www.w3.org/2000/svg" width="24" height="24" viewBox="0 0 24 24" fill="#0d83cd">
    <path d="M12.851 4.353a1.204 1.204 0 0 0-1.702 0l-6.796 6.796c-.47.47-.47 1.232 0 1.702l6.796 6.796c.47.47 1.232.47 1.702 0l6.796-6.796c.47-.47.47-1.232 0-1.702l-6.796-6.796zm1.414-1.415l6.797 6.797a3.204 3.204 0 0 1 0 4.53l-6.797 6.797a3.204 3.204 0 0 1-4.53 0l-6.797-6.797a3.204 3.204 0 0 1 0-4.53l6.797-6.797a3.204 3.204 0 0 1 4.53 0zM12 8a1 1 0 1 1 0-2 1 1 0 0 1 0 2zm-2.4 3.9L9 10l2.7-.9c.7-.2 1.4.4 1.3 1.1l-.8 5.3 1.5-.5.6 1.9-3 1c-.7.2-1.4-.4-1.3-1.1l.8-5.4-1.2.5z"/>
</svg>
