<svg xmlns="http://www.w3.org/2000/svg" width="58" height="64" viewBox="0 0 58 64">
  <defs>
    <linearGradient id="app_header-icon-stop" x1="50%" x2="70.782%" y1="0%" y2="100%">
      <stop class="stop-start" offset="0%"/>
      <stop class="stop-end" offset="100%"/>
    </linearGradient>
  </defs>
  <g class="frame-wrapper">
    <path d="M20,7.3c-0.4,0-0.7,0.3-0.7,0.7v48c0,0.4,0.3,0.7,0.7,0.7H50c0.4,0,0.7-0.3,0.7-0.7V8c0-0.4-0.3-0.7-0.7-0.7 c0,0,0,0,0,0H20L20,7.3z M20,0H50c4.4,0,8,3.6,8,8v48c0,4.4-3.6,8-8,8H20c-4.4,0-8-3.6-8-8V8C12,3.6,15.6,0,20,0L20,0z" class="frame"/>
    <path d="M8,17.2c-0.4,0-0.7,0.3-0.7,0.7c0,0,0,0,0,0V45c0,0.4,0.3,0.7,0.7,0.7h16c0.4,0,0.7-0.3,0.7-0.7c0,0,0,0,0,0 V17.9c0-0.4-0.3-0.7-0.7-0.7L8,17.2L8,17.2z M8,10h16c4.4,0,8,3.6,8,7.9V45c0,4.4-3.6,7.9-8,7.9H8c-4.4,0-8-3.6-8-7.9V17.9 C0,13.6,3.6,10,8,10z" class="frame"/>
  </g>
</svg>
