<svg xmlns="http://www.w3.org/2000/svg" width="58" height="64" viewBox="0 0 58 64">
    <defs>
        <linearGradient id="a" x1="50%" x2="70.782%" y1="0%" y2="100%">
            <stop offset="0%" stop-color="#135EA7" stop-opacity=".855"/>
            <stop offset="100%" stop-color="#1E568F"/>
        </linearGradient>
    </defs>
    <g fill="url(#a)" fill-rule="evenodd" transform="translate(-86 -46)">
        <path d="M105.969 53.273c-.4 0-.725.325-.725.727v48c0 .402.324.727.725.727h30.062c.4 0 .725-.325.725-.727V54a.726.726 0 0 0-.725-.727H105.97zm0-7.273h30.062c4.401 0 7.969 3.582 7.969 8v48c0 4.418-3.568 8-7.969 8H105.97c-4.401 0-7.969-3.582-7.969-8V54c0-4.418 3.568-8 7.969-8z" style="mix-blend-mode:multiply"/>
        <path d="M94.009 63.227a.725.725 0 0 0-.728.723v27.1c0 .4.326.723.728.723h15.982a.725.725 0 0 0 .728-.723v-27.1c0-.4-.326-.723-.728-.723H94.01zm0-7.227h15.982c4.423 0 8.009 3.56 8.009 7.95v27.1c0 4.39-3.586 7.95-8.009 7.95H94.01C89.586 99 86 95.44 86 91.05v-27.1c0-4.39 3.586-7.95 8.009-7.95z" style="mix-blend-mode:multiply"/>
    </g>
</svg>
