<svg xmlns="http://www.w3.org/2000/svg" width="287" height="316" viewBox="0 0 287 316">
  <path fill="#FFF" d="M39.5905259,85 C37.6075332,85 36,86.5981734 36,88.5696203 L36,222.43038 C36,224.401827 37.6075332,226 39.5905259,226 L118.409474,226 C120.392467,226 122,224.401827 122,222.43038 L122,88.5696203 C122,86.5981734 120.392467,85 118.409474,85 L39.5905259,85 Z M39.5432072,49 L118.456793,49 C140.295903,49 158,66.6301988 158,88.3781513 L158,222.621849 C158,244.369801 140.295903,262 118.456793,262 L39.5432072,262 C17.7040969,262 0,244.369801 0,222.621849 L0,88.3781513 C0,66.6301988 17.7040969,49 39.5432072,49 Z"/>
  <path fill="#004582" d="M98.5944882,35.9090909 C96.6190918,35.9090909 95.0177165,37.5167957 95.0177165,39.5 L95.0177165,276.5 C95.0177165,278.483204 96.6190918,280.090909 98.5944882,280.090909 L247.030512,280.090909 C249.005908,280.090909 250.607283,278.483204 250.607283,276.5 L250.607283,39.5 C250.607283,37.5167957 249.005908,35.9090909 247.030512,35.9090909 L98.5944882,35.9090909 Z M98.5944882,0 L247.030512,0 C268.759873,0 286.375,17.6847524 286.375,39.5 L286.375,276.5 C286.375,298.315248 268.759873,316 247.030512,316 L98.5944882,316 C76.8651274,316 59.25,298.315248 59.25,276.5 L59.25,39.5 C59.25,17.6847524 76.8651274,0 98.5944882,0 Z"/>
  <rect width="36" height="36" x="59" y="49" fill="#3370AF"/>
  <rect width="36" height="36" x="59" y="226" fill="#3370AF"/>
</svg>
