<svg xmlns="http://www.w3.org/2000/svg" width="24" height="24" viewBox="0 0 24 24">
  <path fill-rule="evenodd" d="M12.0906064,15.283871 C10.9827623,15.283871 10.0763445,14.3548387 10.0763445,13.2193548 L14.1048683,13.2193548 C14.1048683,14.3548387 13.1984504,15.283871 12.0906064,15.283871 Z M8.46493493,11.1548387 C9.1699266,11.1548387 9.87491827,11.7741935 9.87491827,12.6 L7.05495159,12.6 C7.05495159,11.7741935 7.65923016,11.1548387 8.46493493,11.1548387 Z M15.5148516,11.1548387 C16.2198433,11.1548387 16.8241219,11.7741935 16.8241219,12.6 L14.1048683,12.6 C14.1048683,11.7741935 14.7091469,11.1548387 15.5148516,11.1548387 Z M12.1913195,5.06451613 C11.687754,5.06451613 11.1841885,4.6516129 11.1841885,4.03225806 C11.1841885,3.41290323 11.5870409,3 12.1913195,3 C12.795598,3 13.1984504,3.41290323 13.1984504,4.03225806 C13.1984504,4.6516129 12.795598,5.06451613 12.1913195,5.06451613 Z M21.7590636,12.2903226 C21.9604898,13.3225806 22.0612029,14.4580645 21.9604898,15.8 C22.0612029,16.6258065 21.7590636,17.3483871 21.2554981,17.8645161 C20.7519326,18.3806452 20.0469409,18.7935484 19.2412362,18.7935484 C17.5291136,18.8967742 14.80986,19 11.9898933,19 C9.1699266,19 6.45067302,18.8967742 4.73855039,18.7935484 C3.93284562,18.7935484 3.22785395,18.3806452 2.72428847,17.8645161 C2.22072299,17.2451613 1.91858371,16.5225806 2.0192968,15.8 C2.1200099,14.4580645 2.22072299,13.3225806 2.42214918,12.2903226 C2.62357538,10.7419355 3.02642776,9.29677419 3.22785395,8.26451613 C3.52999324,7.12903226 4.63783729,6.2 5.94710754,6.2 C7.15566469,6.09677419 9.2706397,5.99354839 12.0906064,5.99354839 C14.9105731,5.99354839 17.0255481,6.09677419 18.3348183,6.09677419 C19.5433755,6.2 20.6512195,7.02580645 20.9533588,8.26451613 C21.154785,9.29677419 21.5576374,10.8451613 21.7590636,12.2903226 Z M19.9462278,16.4193548 C20.147654,16.2129032 20.147654,16.1096774 20.147654,16.1096774 C20.0469409,14.7677419 19.8455148,13.6322581 19.7448017,12.7032258 C19.5433755,11.4645161 19.2412362,10.1225806 18.9390969,8.88387097 C18.9390969,8.57419355 18.5362445,8.26451613 18.1333921,8.26451613 C16.5219826,8.16129032 14.4070076,8.05806452 12.0906064,8.05806452 C9.77420518,8.05806452 7.65923016,8.16129032 6.04782063,8.26451613 C5.54425515,8.26451613 5.24211587,8.47096774 5.14140277,8.78064516 C4.83926348,10.1225806 4.5371242,11.3612903 4.4364111,12.6 C4.23498491,13.6322581 4.13427181,14.7677419 4.03355872,16.0064516 C4.03355872,16.1096774 4.03355872,16.2129032 4.23498491,16.4193548 C4.4364111,16.6258065 4.63783729,16.7290323 4.93997658,16.7290323 C7.25637778,16.8322581 9.67349208,16.9354839 12.0906064,16.9354839 C14.5077207,16.9354839 16.924835,16.8322581 19.2412362,16.7290323 C19.5433755,16.7290323 19.7448017,16.6258065 19.9462278,16.4193548 Z"/>
</svg>
